<mxfile host="app.diagrams.net" modified="2023-05-22T16:55:47.258Z" agent="Mozilla/5.0 (Macintosh; Intel Mac OS X 10_15_7) AppleWebKit/537.36 (KHTML, like Gecko) Chrome/112.0.0.0 Safari/537.36" version="21.3.2" etag="lJiwtr3jpZUoyxmIkvh7" type="github">
  <diagram name="Page-1" id="OfesNbDmrwmBnu0Ap5S2">
    <mxGraphModel>
      <root>
        <mxCell id="0" />
        <mxCell id="1" parent="0" />
      </root>
    </mxGraphModel>
  </diagram>
</mxfile>
